<svg class="icon" width="16" height="16" viewBox="0 0 16 16" fill="currentColor"><path d="M6 6.25a.75.75 0 0 1 .75.75v2.25H9a.75.75 0 0 1 0 1.5H6.75V13a.75.75 0 0 1-1.5 0v-2.25H3a.75.75 0 0 1 0-1.5h2.25V7A.75.75 0 0 1 6 6.25Z"/><path fill-rule="evenodd" clip-rule="evenodd" d="M14.5 0A1.5 1.5 0 0 1 16 1.5v9a1.5 1.5 0 0 1-1.5 1.5H12v2.5a1.5 1.5 0 0 1-1.5 1.5h-9A1.5 1.5 0 0 1 0 14.5v-9A1.5 1.5 0 0 1 1.5 4H4V1.5A1.5 1.5 0 0 1 5.5 0h9Zm-13 14.5h9v-9h-9v9Zm9-10.5A1.5 1.5 0 0 1 12 5.5v5h2.5v-9h-9V4h5Z"/></svg>
