<svg class="icon" width="16" height="16" viewBox="0 0 16 16" fill="currentColor"><path d="M6.913 7a1.5 1.5 0 1 1 0 3 1.5 1.5 0 0 1 0-3Z"/><path fill-rule="evenodd" clip-rule="evenodd" d="M11.379 0a1.5 1.5 0 0 1 1.06.44l2.121 2.12A1.5 1.5 0 0 1 15 3.622V11.5a1.5 1.5 0 0 1-1.5 1.5H11v1.5A1.5 1.5 0 0 1 9.5 16h-7l-.153-.008A1.5 1.5 0 0 1 1 14.5v-10A1.5 1.5 0 0 1 2.5 3H5V1.5A1.5 1.5 0 0 1 6.5 0h4.879ZM2.5 14.5h7v-.988l-1.02-1.12a.251.251 0 0 0-.218-.08l-2.678.356A1.751 1.751 0 0 1 3.967 12L2.5 10.093V14.5Zm9.546-5.12L11 9.646V11.5h2.5v-.64l-.32-.372-.883-1.029a.25.25 0 0 0-.251-.08ZM2.5 7.633l2.655 3.452c.055.07.143.107.232.096l2.677-.356a1.75 1.75 0 0 1 1.436.47V6.62L7.379 4.5H2.5v3.133ZM6.5 3h.879a1.5 1.5 0 0 1 1.06.44l1.101 1.1A1.5 1.5 0 1 1 11 6.968v1.13l.675-.171a1.75 1.75 0 0 1 1.76.555l.065.076V3.62L11.379 1.5H6.5V3Z"/></svg>
