<svg class="icon" width="16" height="16" viewBox="0 0 16 16" fill="currentColor"><path d="M10.69 4.507a.25.25 0 0 1 .31.242v5.17h-.005c-.02.53-.451 1.003-1.05 1.108-.68.12-1.318-.278-1.425-.89-.108-.612.355-1.206 1.035-1.325.152-.027.302-.027.445-.005v-2.36l-3 .738v4.622h-.005c.01.552-.429 1.057-1.05 1.167-.68.12-1.317-.28-1.425-.891-.108-.612.355-1.205 1.035-1.325A1.36 1.36 0 0 1 6 10.752V5.807h.009a.247.247 0 0 1 .181-.194l4.5-1.106Z"/><path fill-rule="evenodd" clip-rule="evenodd" d="M10.379 0a1.5 1.5 0 0 1 1.06.44l2.121 2.12A1.5 1.5 0 0 1 14 3.622V14.5a1.5 1.5 0 0 1-1.5 1.5h-9A1.5 1.5 0 0 1 2 14.5v-13A1.5 1.5 0 0 1 3.5 0h6.879ZM3.5 14.5h9V3.621L10.379 1.5H3.5v13Z"/></svg>
