<svg class="icon" width="16" height="16" viewBox="0 0 16 16" fill="currentColor"><path d="M8 .25c.313 0 .622.02.925.056l.302.042.106.024a.75.75 0 0 1 .499.52l.498 1.834c.04.146.2.223.34.163l1.744-.755.104-.036a.75.75 0 0 1 .699.17 7.782 7.782 0 0 1 1.53 1.921.75.75 0 0 1-.048.813l-1.122 1.531a.25.25 0 0 0 .084.368l1.675.892a.75.75 0 0 1 .395.71 7.71 7.71 0 0 1-.544 2.397.75.75 0 0 1-.665.468l-1.898.077a.251.251 0 0 0-.235.297l.345 1.865a.75.75 0 0 1-.308.752 7.72 7.72 0 0 1-2.213 1.068.75.75 0 0 1-.781-.228l-1.244-1.435a.25.25 0 0 0-.377 0l-1.245 1.435a.75.75 0 0 1-.78.228 7.72 7.72 0 0 1-2.213-1.068.75.75 0 0 1-.308-.752l.346-1.865a.251.251 0 0 0-.235-.297l-1.898-.077a.75.75 0 0 1-.665-.468 7.715 7.715 0 0 1-.545-2.397.75.75 0 0 1 .395-.71l1.676-.892.046-.03a.25.25 0 0 0 .038-.338L1.3 5.002a.75.75 0 0 1-.048-.813 7.781 7.781 0 0 1 1.53-1.921l.086-.068a.75.75 0 0 1 .717-.066l1.744.755.053.016a.25.25 0 0 0 .288-.18L6.167.893l.036-.104a.75.75 0 0 1 .57-.44A7.62 7.62 0 0 1 8 .25Zm0 1.5a6.36 6.36 0 0 0-.519.02l-.364 1.348a1.75 1.75 0 0 1-2.199 1.216l-.185-.068-1.28-.555a6.282 6.282 0 0 0-.646.811l.825 1.124a1.75 1.75 0 0 1-.42 2.477l-.168.103-1.232.654c.05.347.127.684.23 1.01l1.395.057a1.75 1.75 0 0 1 1.649 2.069l-.255 1.369c.296.175.607.326.932.45l.915-1.054a1.75 1.75 0 0 1 2.644 0l.914 1.054a6.21 6.21 0 0 0 .931-.45l-.253-1.37a1.75 1.75 0 0 1 1.65-2.068l1.392-.057c.103-.326.18-.663.23-1.01l-1.23-.654a1.75 1.75 0 0 1-.588-2.58l.823-1.124a6.281 6.281 0 0 0-.645-.811l-1.28.555a1.75 1.75 0 0 1-2.383-1.148l-.366-1.347A6.275 6.275 0 0 0 8 1.75Z"/><path d="M9.25 8a1.25 1.25 0 1 0-2.5 0 1.25 1.25 0 0 0 2.5 0Zm1.5 0a2.75 2.75 0 1 1-5.5 0 2.75 2.75 0 0 1 5.5 0Z"/></svg>
