<svg class="icon" width="16" height="16" viewBox="0 0 16 16" fill="currentColor"><path d="M13.25 6.616a.8.8 0 0 0-.342-.66l-4.5-3.078a.717.717 0 0 0-.816 0l-4.5 3.077a.8.8 0 0 0-.342.661v6.634h2.5v-3.227C5.267 8.576 6.612 7.608 8 7.607l.26.012c1.291.112 2.473 1.048 2.489 2.404l.001 3.227h2.5V6.616Zm1.5 8.134h-5.5l-.001-4.708-.006-.078c-.051-.366-.432-.795-1.097-.85L8 9.106c-.807 0-1.245.53-1.25.935v4.708h-5.5V6.616a2.3 2.3 0 0 1 .994-1.9l4.5-3.076a2.22 2.22 0 0 1 2.512 0l4.5 3.077a2.3 2.3 0 0 1 .994 1.9v8.133Z"/></svg>
