<svg class="icon" xmlns="http://www.w3.org/2000/svg" width="16" height="16" fill="currentColor" viewBox="0 0 16 16"><path fill-rule="evenodd" d="M1.538 1.223C1.933.618 2.662.25 3.481.25h9.038c.82 0 1.548.368 1.943.973.415.637.405 1.475-.184 2.125l-.008.01-4.32 4.468a.25.25 0 0 0 0 .348l4.32 4.469.008.009c.589.65.599 1.488.184 2.125-.395.605-1.123.973-1.943.973H3.481c-.82 0-1.548-.368-1.943-.973-.415-.637-.405-1.475.184-2.125l.008-.01 4.32-4.468a.25.25 0 0 0 0-.348L1.73 3.357l-.008-.009c-.589-.65-.6-1.488-.184-2.125Zm1.29 1.111 4.3 4.45a1.75 1.75 0 0 1 0 2.432l-4.3 4.45c-.066.075-.076.127-.078.153a.227.227 0 0 0 .045.138c.08.125.303.293.686.293h9.038c.383 0 .605-.168.686-.293a.227.227 0 0 0 .045-.138c-.002-.026-.012-.079-.078-.153l-4.3-4.45a1.75 1.75 0 0 1 0-2.432l4.3-4.45c.066-.074.076-.127.078-.153a.228.228 0 0 0-.045-.139c-.08-.124-.303-.292-.686-.292H3.481c-.383 0-.605.168-.686.292a.227.227 0 0 0-.045.139c.002.026.012.079.078.153Z" clip-rule="evenodd"/><path d="M3.824 15h8.352c.769 0 1.04-1.02.372-1.401l-4.176-2.386a.75.75 0 0 0-.744 0l-4.176 2.386C2.784 13.98 3.055 15 3.824 15ZM10.44 5H5.56a.75.75 0 0 0-.585 1.219l2.44 3.049a.75.75 0 0 0 1.17 0l2.44-3.05A.75.75 0 0 0 10.44 5Z"/></svg>
