<svg class="icon" width="16" height="16" viewBox="0 0 16 16" fill="currentColor"><path fill-rule="evenodd" clip-rule="evenodd" d="M11.766.25c1.54 0 2.604 1.718 1.601 3.047l-.007.009-.007.01-2.263 2.807a.788.788 0 0 1-.065.096L9.662 7.922a.251.251 0 0 0 .043.235l3.648 4.528.007.01.007.008c1.003 1.33-.06 3.047-1.601 3.047H4.234c-1.54 0-2.604-1.718-1.601-3.047l.007-.009.007-.01 3.648-4.527a.25.25 0 0 0 .041-.237L4.975 6.219a.787.787 0 0 1-.066-.096L2.648 3.315l-.008-.01-.007-.008C1.63 1.967 2.693.25 4.234.25h7.532Zm-3.18 9.018a.75.75 0 0 1-1.172 0l-.044-.056-3.205 3.978 3.463-1.977a.75.75 0 0 1 .744 0l3.461 1.977-3.204-3.978-.043.056ZM4.234 1.75a.478.478 0 0 0-.436.241.352.352 0 0 0 .027.395L5.931 5h4.138l2.105-2.614a.352.352 0 0 0 .028-.395.479.479 0 0 0-.436-.241H4.234Z"/></svg>
