<svg class="icon" width="16" height="16" viewBox="0 0 16 16" fill="currentColor"><path d="M16 11.25a3 3 0 0 1-3 3H1.25v-1.5H13a1.5 1.5 0 0 0 1.5-1.5V3H16v8.25Zm-4-9.5a1.5 1.5 0 0 1 1.5 1.5v7.125a1.5 1.5 0 0 1-1.347 1.492l-.153.008H1.5l-.153-.008a1.5 1.5 0 0 1-1.34-1.339L0 10.375V3.25a1.5 1.5 0 0 1 1.5-1.5H12ZM4.755 7.137a.25.25 0 0 0-.41.018l-2.042 3.22h8.704L9.727 8.97a.25.25 0 0 0-.217-.08l-2.09.278A1.75 1.75 0 0 1 5.805 8.5l-1.05-1.363ZM1.5 8.84l1.58-2.488a1.75 1.75 0 0 1 2.864-.13l1.048 1.363a.25.25 0 0 0 .232.096l2.088-.278a1.75 1.75 0 0 1 1.525.557L12 9.237V3.25H1.5v5.59Zm6.938-4.56a1.266 1.266 0 1 1 0 2.531 1.266 1.266 0 0 1 0-2.53Z"/></svg>
