<svg class="icon" width="16" height="16" viewBox="0 0 16 16" fill="currentColor"><path fill-rule="evenodd" clip-rule="evenodd" d="M8.21 1.652c-1.288 1.287-1.28 3.275-.315 4.815L1.28 13.081a.75.75 0 0 0 1.06 1.061l.319-.318 1.848 1.848a.75.75 0 1 0 1.061-1.06L3.72 12.763l1.03-1.03 1.849 1.849.057.052a.75.75 0 0 0 1.055-1.055l-.052-.058-1.848-1.848L8.884 7.6c1.586 1.32 3.898 1.5 5.336.062 1.538-1.538 1.226-4.077-.354-5.657S9.748.113 8.21 1.652Zm1.06 1.06c.805-.805 2.382-.8 3.536.354 1.153 1.153 1.158 2.73.353 3.535-.805.805-2.382.8-3.535-.353-.049-.049-.093-.1-.138-.15a.754.754 0 0 0-.073-.088l-.016-.013c-.923-1.123-.875-2.537-.127-3.285Z"/></svg>
