<svg class="icon" width="16" height="16" viewBox="0 0 16 16" fill="currentColor"><path d="M7.5 2.5v-1h6v8h-1V11h1.273C14.45 11 15 10.472 15 9.821V1.18C15 .528 14.45 0 13.773 0H7.227C6.55 0 6 .528 6 1.179V2.5h1.5Z"/><path d="M5 5V4h6v8h-1v1.5h1.273c.678 0 1.227-.528 1.227-1.179V3.68c0-.651-.55-1.179-1.227-1.179H4.727C4.05 2.5 3.5 3.028 3.5 3.679V5H5Z"/><path fill-rule="evenodd" clip-rule="evenodd" d="M2.5 6.5v8h6v-8h-6ZM2.227 5C1.55 5 1 5.528 1 6.179v8.642C1 15.472 1.55 16 2.227 16h6.546C9.45 16 10 15.472 10 14.821V6.18C10 5.528 9.45 5 8.773 5H2.227Z"/><path d="M3 10.5a.5.5 0 0 1 .5-.5h4a.5.5 0 0 1 .5.5V13a.5.5 0 0 1-.5.5h-4A.5.5 0 0 1 3 13v-2.5Zm0-2.25a.75.75 0 0 1 .75-.75h2.5a.75.75 0 0 1 0 1.5h-2.5A.75.75 0 0 1 3 8.25Z"/></svg>
