<svg class="icon" width="16" height="16" viewBox="0 0 16 16" fill="currentColor"><path fill-rule="evenodd" clip-rule="evenodd" d="M14.773 1.5C15.45 1.5 16 2.028 16 2.679v8.642c0 .651-.55 1.179-1.227 1.179H13.5v1.321c0 .651-.55 1.179-1.227 1.179H5.728l-.126-.006c-.62-.06-1.102-.563-1.102-1.173V12.75a.75.75 0 0 1 1.5 0v.75h6v-8H6v.75a.75.75 0 0 1-1.5 0V5.179c0-.61.483-1.113 1.102-1.173L5.728 4H7V2.679C7 2.028 7.55 1.5 8.228 1.5h6.545Zm-2.5 2.5c.677 0 1.227.528 1.227 1.179V11h1V3h-6v1h3.773Z"/><path d="M2 .75a.75.75 0 0 1 .75.75v7.25H7V7.207a.5.5 0 0 1 .854-.353l2.292 2.292a.5.5 0 0 1 0 .708l-2.292 2.293A.5.5 0 0 1 7 11.793V10.25H2a.75.75 0 0 1-.75-.75v-8A.75.75 0 0 1 2 .75Z"/></svg>
