<svg class="icon" width="16" height="16" viewBox="0 0 16 16" fill="currentColor"><path d="M11.25 4a.25.25 0 0 0-.25-.25H8.25v-1a1.25 1.25 0 1 0-2.5 0v1H3a.25.25 0 0 0-.25.25v1.75h.5a2.25 2.25 0 0 1 0 4.5h-.5V12l.005.05a.25.25 0 0 0 .245.2h2.75v1l.007.128a1.25 1.25 0 0 0 2.493-.128v-1H11a.25.25 0 0 0 .245-.2l.005-.05V9.25h1l.128-.007a1.25 1.25 0 0 0-.128-2.493h-1V4Zm1.5 1.297a2.75 2.75 0 0 1 0 5.405V12l-.009.179A1.75 1.75 0 0 1 11 13.75H9.702a2.749 2.749 0 0 1-5.404 0H3a1.75 1.75 0 0 1-1.741-1.571L1.25 12V8.75h2l.077-.004a.75.75 0 0 0 0-1.492L3.25 7.25h-2V4c0-.966.784-1.75 1.75-1.75h1.298a2.749 2.749 0 0 1 5.404 0H11c.966 0 1.75.784 1.75 1.75v1.297Z"/></svg>
