<svg class="icon" width="16" height="16" viewBox="0 0 16 16" fill="currentColor"><path d="M15.106 7.008a3 3 0 0 1-.003 4.243l-4.448 4.442-1.06-1.06 4.448-4.443a1.501 1.501 0 0 0 .001-2.122L8.042 2.061 9.102 1l6.004 6.008ZM5.448 1.507a1.5 1.5 0 0 1 1.355.41l6.15 6.15.103.114a1.5 1.5 0 0 1 0 1.893l-.103.114L8.71 14.43l-.113.102a1.5 1.5 0 0 1-2.008-.102L.439 8.28a1.5 1.5 0 0 1-.435-1.17l.025-.185.707-3.535a1.5 1.5 0 0 1 1.177-1.177l3.535-.707Zm-3.24 2.178L1.5 7.22l6.15 6.15 4.243-4.243-6.15-6.15-3.536.708Zm1.066 1.067A1.001 1.001 0 1 1 4.69 6.168a1.001 1.001 0 0 1-1.416-1.416Z"/></svg>
