<svg class="icon" width="16" height="16" viewBox="0 0 16 16" fill="currentColor"><path fill-rule="evenodd" clip-rule="evenodd" d="M14.5 2.5h-13v11h13v-11ZM1.5 1A1.5 1.5 0 0 0 0 2.5v11A1.5 1.5 0 0 0 1.5 15h13a1.5 1.5 0 0 0 1.5-1.5v-11A1.5 1.5 0 0 0 14.5 1h-13Z"/><path d="M2.5 4a.5.5 0 0 1 .5-.5h10a.5.5 0 0 1 .5.5v1a.5.5 0 0 1-.5.5H3a.5.5 0 0 1-.5-.5V4Zm0 3a.5.5 0 0 1 .5-.5h2a.5.5 0 0 1 .5.5v5a.5.5 0 0 1-.5.5H3a.5.5 0 0 1-.5-.5V7Zm4 0a.5.5 0 0 1 .5-.5h6a.5.5 0 0 1 .5.5v5a.5.5 0 0 1-.5.5H7a.5.5 0 0 1-.5-.5V7Z"/></svg>
