<svg class="icon" width="16" height="16" viewBox="0 0 16 16" fill="currentColor"><path fill-rule="evenodd" clip-rule="evenodd" d="M12.749 4.008a2 2 0 0 1 1.79 1.648l.43 2.468c.02.114.031.229.031.344V13l-.01.204a2 2 0 0 1-1.786 1.785L13 15H3l-.204-.01A2 2 0 0 1 1 13V8.4c0-.058.003-.117.008-.175l.023-.174.426-2.4A2 2 0 0 1 3.426 4H5.25V3c0-.966.784-1.75 1.75-1.75h2c.966 0 1.75.784 1.75 1.75v1h1.82l.179.008ZM9.25 4V3A.25.25 0 0 0 9 2.75H7a.25.25 0 0 0-.25.25v1h2.5ZM2.5 13a.5.5 0 0 0 .5.5h10a.5.5 0 0 0 .5-.5V9.75H9.704a.744.744 0 0 1 .046.25.75.75 0 0 1-.75.75H7a.75.75 0 0 1-.75-.75.74.74 0 0 1 .046-.25H2.5V13Zm.926-7.5a.5.5 0 0 0-.492.412L2.52 8.25h10.949l-.407-2.336a.5.5 0 0 0-.493-.414H3.426Z"/></svg>
