<svg class="icon" width="16" height="16" viewBox="0 0 16 16" fill="currentColor"><path fill-rule="evenodd" clip-rule="evenodd" d="M8 10.286a4 4 0 0 1 4 4V15H0v-.714a4 4 0 0 1 4-4h4Zm-4 1.5A2.5 2.5 0 0 0 1.628 13.5h8.744A2.5 2.5 0 0 0 8 11.786H4Z"/><path d="M12 8.286a4 4 0 0 1 4 4V13h-3.126a3.985 3.985 0 0 0-.753-1.5h2.251A2.5 2.5 0 0 0 12 9.786H9.07a4.51 4.51 0 0 0 1.06-1.5H12Z"/><path fill-rule="evenodd" clip-rule="evenodd" d="M6.177 3.005a3.429 3.429 0 0 1 3.252 3.424l-.005.176A3.429 3.429 0 0 1 6 9.857l-.177-.004a3.429 3.429 0 0 1-3.247-3.248l-.005-.176A3.429 3.429 0 0 1 6 3l.177.005ZM6 4.5a1.929 1.929 0 1 0 0 3.858A1.929 1.929 0 0 0 6 4.5Z"/><path d="M10.177 1.005a3.429 3.429 0 0 1 3.252 3.424l-.005.176a3.428 3.428 0 0 1-3.131 3.239 4.49 4.49 0 0 0 .201-1.554 1.927 1.927 0 1 0-1.731-3.34c-.41-.32-.876-.57-1.381-.733A3.42 3.42 0 0 1 10 1l.177.005Z"/></svg>
